<svg width="640" height="640" viewBox="0 0 640 640" fill="none" xmlns="http://www.w3.org/2000/svg">
  <rect width="640" height="640" rx="320" fill="#EDF9FE"/>
  <circle cx="320" cy="270" r="86" fill="#0E6BA8"/>
  <path d="M176 514c20-95 78-151 144-151s124 56 144 151" fill="#001C55"/>
  <rect x="206" y="170" width="228" height="228" rx="34" fill="#001C55"/>
  <rect x="244" y="208" width="152" height="152" rx="18" fill="#0E6BA8"/>
  <path d="M276 286h88M276 318h58M286 254h68" stroke="#EDF9FE" stroke-width="16" stroke-linecap="round"/>
  <path d="M166 228h40M166 274h40M166 320h40M434 228h40M434 274h40M434 320h40M274 130v40M320 130v40M366 130v40M274 398v40M320 398v40M366 398v40" stroke="#001C55" stroke-width="18" stroke-linecap="round"/>
  <circle cx="408" cy="408" r="70" fill="#A6E1FA" stroke="#001C55" stroke-width="16"/>
  <path d="M374 408h68M408 374v68" stroke="#0E6BA8" stroke-width="16" stroke-linecap="round"/>
</svg>
